# xmcd
#
# Track frame offsets:
#	150
#	19346
#	33222
#	53382
#	71314
#	88180
#	101737
#	118466
#	134713
#	151191
#	168337
#	184269
#	198798
#	214710
#	234205
#	253032
#	271599
#	295371
#	316483
#	339726
#
# Disc length: 4734 seconds
#
# Revision: 1
# Processed by: cddbd v1.5.2PL0 Copyright (c) Steve Scherf et al.
# Submitted via: audiograbber 1.83.01
#
DISCID=1f127c14
DTITLE=Various Artist - R&B Lovesongs 2008 - CD1
DYEAR=2008
DGENRE=R&B
TTITLE0=Rihanna feat. Jay-Z - Umbrella
TTITLE1=Amy Winehouse - Tears Dry On Their Own
TTITLE2=Fergie - Big Girls Don't Cry
TTITLE3=Christina Aguilera - Beautiful
TTITLE4=Justin Timberlake - Lovestoned
TTITLE5=Akon - Don't Matter
TTITLE6=Amerie - Take Control
TTITLE7=Mario - How Do I Breathe
TTITLE8=Usher - You Make Me Wanna...
TTITLE9=Nelly - Hot In Herre
TTITLE10=Ralph Tresvant - Sensitivity
TTITLE11=Angie Stone - I Wanna Thank Ya
TTITLE12=Lumidee - Never Leave You - Uh Ooh, Uh Oooh!
TTITLE13=Solange - White Picket Dreams
TTITLE14=Chris Brown feat. T-Pain - Kiss Kiss
TTITLE15=Cassidy feat. R.Kelly - Hotel
TTITLE16=R.Kelly feat. T.I. and T-Pain - I'm A Flirt Remix
TTITLE17=John Legend - Ordinary People
TTITLE18=Luther Vandross - Stop To Love
TTITLE19=Michael Jackson - Rock With You
EXTD=
EXTT0=
EXTT1=
EXTT2=
EXTT3=
EXTT4=
EXTT5=
EXTT6=
EXTT7=
EXTT8=
EXTT9=
EXTT10=
EXTT11=
EXTT12=
EXTT13=
EXTT14=
EXTT15=
EXTT16=
EXTT17=
EXTT18=
EXTT19=
PLAYORDER=
